<svg id="Capa_1" enable-background="new 0 0 512 512" height="512" viewBox="0 0 512 512" width="512" xmlns="http://www.w3.org/2000/svg"><g><path d="m98.528 357.248-45.005 77.951c-7.032 12.179 2.859 27.16 16.822 25.477l44.478-5.359c3.765-.454 7.378 1.632 8.868 5.12l17.598 41.199c5.525 12.933 23.443 14.009 30.475 1.829l46.285-80.167h75.902l46.285 80.167c7.032 12.179 24.95 11.104 30.475-1.829l17.598-41.199c1.49-3.488 5.103-5.574 8.868-5.12l44.478 5.359c13.963 1.682 23.853-13.298 16.822-25.477l-45.005-77.951z" fill="#d83131"/><g fill="#c41926"><path d="m458.477 435.199-45.005-77.951h-22.024l43.335 75.059c7.032 12.18-2.859 27.16-16.822 25.477l-44.478-5.358c-3.765-.454-7.378 1.632-8.868 5.12l-17.598 41.199c-1.236 2.895-3.096 5.19-5.314 6.881 7.793 9.833 23.834 8.122 29.008-3.989l17.598-41.199c1.49-3.488 5.103-5.574 8.868-5.12l44.478 5.359c13.963 1.682 23.854-13.298 16.822-25.478z"/><path d="m270.257 420.407-74.624-2.402-47.563 82.569c-1.192 2.065-2.703 3.74-4.408 5.05 7.141 9.01 21.88 8.618 28.102-2.158l46.285-80.167h53.878z"/></g><path d="m326.44 412.356 87.018-55.099c19.763-21.61 35.144-47.295 44.717-75.657v-136.533c-28.468-84.34-108.229-145.067-202.175-145.067s-173.707 60.727-202.175 145.067v136.533c28.468 84.34 108.229 145.067 202.175 145.067 12.962 0 25.651-1.162 37.975-3.376z" fill="#fe950d"/><path d="m256 0c-3.976 0-7.925.118-11.847.333 88.756 4.859 163.065 63.964 190.328 144.734v136.533c-27.263 80.77-101.572 139.875-190.328 144.734 3.923.215 7.871.333 11.847.333 93.946 0 173.707-60.727 202.175-145.067v-136.533c-28.468-84.34-108.229-145.067-202.175-145.067z" fill="#fa6f0c"/><path d="m403.091 281.6c-25.77 55.43-81.937 93.867-147.091 93.867s-121.321-38.437-147.091-93.867v-136.533c25.77-55.43 81.937-93.867 147.091-93.867s121.321 38.437 147.091 93.867z" fill="#fedf30"/><path d="m494.902 281.6h-477.804c-14.064 0-22.092-16.056-13.653-27.307l26.88-35.84c2.275-3.034 2.275-7.206 0-10.24l-26.88-35.84c-8.438-11.251-.41-27.307 13.653-27.307h477.805c14.064 0 22.092 16.056 13.653 27.307l-26.88 35.84c-2.276 3.034-2.276 7.206 0 10.24l26.88 35.84c8.438 11.251.41 27.307-13.654 27.307z" fill="#d83131"/><g fill="#fedf30"><path d="m286.685 171.473c-.025 0-.051 0-.076 0-4.267.041-7.692 3.534-7.651 7.801l.428 44.236-33.544-48.574c-1.921-2.783-5.429-3.989-8.657-2.986-3.228 1.006-5.427 3.995-5.427 7.376v68.139c0 4.268 3.459 7.726 7.726 7.726s7.726-3.459 7.726-7.726v-43.354l31.99 46.324c2.303 3.326 6.133 4.746 9.752 3.613 3.703-1.157 6.096-4.644 6.095-8.957l-.638-65.967c-.04-4.24-3.491-7.651-7.724-7.651z"/><path d="m100.366 208.245c2.633-3.789 4.181-8.384 4.181-13.337 0-12.922-10.513-23.435-23.435-23.435h-19.829c-4.267 0-7.726 3.459-7.726 7.726v31.436.05 36.781c0 2.055.819 4.025 2.275 5.476 1.448 1.442 3.409 2.25 5.451 2.25h.034c.002 0 18.233-.08 23.259-.08 14.392 0 26.102-11.709 26.102-26.102-.001-8.461-4.052-15.992-10.312-20.765zm-19.254-21.319c4.401 0 7.982 3.581 7.982 7.982s-3.58 7.982-7.982 7.982c-1.478 0-4.28.008-7.321.019h-4.782v-15.983zm3.464 52.734c-2.852 0-9.945.026-15.566.048v-21.328c1.547-.006 3.18-.013 4.752-.018h10.815c5.872 0 10.649 4.777 10.649 10.649-.002 5.872-4.779 10.649-10.65 10.649z"/><path d="m438.778 206.623c-8.512-3.141-16.426-6.562-18.722-7.568-1.592-1.242-2.356-3.171-2.056-5.257.195-1.358 1.169-4.674 5.996-6.128 10.061-3.033 19.299 4.304 19.531 4.492 3.266 2.712 8.115 2.281 10.85-.973 2.745-3.267 2.324-8.141-.943-10.886-.631-.531-15.659-12.918-33.896-7.43-9.12 2.749-15.571 9.924-16.835 18.728-1.183 8.242 2.388 16.169 9.32 20.688.341.223.7.419 1.072.585.394.176 9.771 4.349 20.334 8.247 3.184 1.174 10.478 4.517 9.465 10.191-.739 4.143-5.7 8.428-12.72 8.428-7.01 0-13.763-2.834-18.064-7.581-2.865-3.162-7.751-3.402-10.914-.537-3.162 2.865-3.402 7.751-.537 10.913 7.182 7.926 18.216 12.657 29.515 12.657 13.995 0 25.742-8.9 27.932-21.164 1.643-9.195-2.572-21.225-19.328-27.405z"/><path d="m372.253 171.473c-4.267 0-7.726 3.459-7.726 7.726v46.926c0 3.502-.979 8.015-8.615 11.86-2.312 1.164-4.924 1.755-7.764 1.755-.009 0-.019 0-.028 0-3.172-.004-5.931-.784-8.434-2.383-5.928-3.788-7.143-7.209-7.143-11.182v-46.975c0-4.268-3.459-7.726-7.726-7.726s-7.726 3.459-7.726 7.726v46.975c0 10.15 4.669 18.066 14.276 24.204 4.987 3.186 10.617 4.806 16.732 4.814h.049c5.275 0 10.225-1.146 14.713-3.405 14.147-7.124 17.117-17.887 17.117-25.662v-46.926c.001-4.268-3.458-7.727-7.725-7.727z"/><path d="m171.217 171.473c-23.081 0-41.86 18.779-41.86 41.86s18.778 41.859 41.86 41.859 41.86-18.778 41.86-41.859-18.778-41.86-41.86-41.86zm0 68.267c-14.561 0-26.407-11.846-26.407-26.406 0-14.561 11.846-26.407 26.407-26.407s26.407 11.846 26.407 26.407c0 14.56-11.846 26.406-26.407 26.406z"/></g><path d="m481.676 218.453c-2.276-3.034-2.276-7.206 0-10.24l26.88-35.84c8.438-11.251.41-27.307-13.653-27.307h-23.694c14.064 0 22.091 16.056 13.653 27.307l-26.88 35.84c-2.276 3.034-2.276 7.206 0 10.24l26.88 35.84c8.438 11.251.41 27.307-13.653 27.307h23.694c14.064 0 22.091-16.056 13.653-27.307z" fill="#c41926"/></g></svg>