<svg width="90" height="76" viewBox="0 0 90 76" fill="none" xmlns="http://www.w3.org/2000/svg">
<path d="M30.4721 0C34.057 3.20027 37.4428 6.60054 40.6295 10.2008C40.2311 10.8009 39.1357 12.001 37.3433 13.8011C35.5508 15.4013 34.1566 16.8014 33.1608 18.0015C32.165 19.0015 30.97 20.4017 29.5758 22.2018C28.3809 23.8019 27.4846 25.4021 26.8871 27.0022C26.2896 28.6023 25.9909 30.1024 25.9909 31.5026C25.9909 33.7027 28.4805 37.203 33.4596 42.0034C38.4386 46.6038 40.9282 51.7042 40.9282 57.3046C40.9282 62.3051 39.1357 66.6054 35.5508 70.2057C32.165 73.606 27.883 75.3061 22.7047 75.3061C15.734 75.3061 10.1574 72.8059 5.97492 67.8055C1.99164 62.8051 0 56.8046 0 49.804C0 31.4025 10.1574 14.8012 30.4721 0ZM79.5439 0C83.1288 3.20027 86.5146 6.60054 89.7012 10.2008C89.3029 10.8009 88.2075 12.001 86.415 13.8011C84.6226 15.4013 83.2284 16.8014 82.2326 18.0015C81.2368 19.0015 80.0418 20.4017 78.6476 22.2018C77.4527 23.8019 76.5564 25.4021 75.9589 27.0022C75.3614 28.6023 75.0627 30.1024 75.0627 31.5026C75.0627 33.7027 77.5522 37.203 82.5313 42.0034C87.5105 46.6038 90 51.7042 90 57.3046C90 62.3051 88.2075 66.6054 84.6226 70.2057C81.2368 73.606 76.9548 75.3061 71.7765 75.3061C64.8057 75.3061 59.2292 72.8059 55.0467 67.8055C51.0634 62.8051 49.0718 56.8046 49.0718 49.804C49.0718 31.4025 59.2292 14.8012 79.5439 0Z" fill="white"/>
</svg>
