<svg fill="currentColor" id="Layer_1" enable-background="new 0 0 508.536 508.536" height="512" viewBox="0 0 508.536 508.536" width="512" xmlns="http://www.w3.org/2000/svg"><path d="m466.99 233.757c-12.977 0-24.194-8.572-27.911-21.332-3.016-10.352-7.324-20.509-12.828-30.257v-127.622c0-8.836-7.164-16-16-16-42.836 0-80.823 17.633-104.664 53.61-26.408-8.158-54.373-12.287-83.322-12.287-151.852 0-255.46 111.911-212.477 219.759 1.872 5.133 36.526 100.513 49.02 157.772 1.604 7.35 8.11 12.589 15.632 12.589h104.395c8.836 0 16-7.164 16-16v-7.705c0-14.195 11.276-26.656 27.431-26.64 16.226-.017 27.432 12.496 27.432 26.64v7.705c0 8.836 7.164 16 16 16h104.395c6.102 0 11.672-3.47 14.361-8.947 34.019-69.269 32.405-65.974 32.547-66.287 1.23-2.686 7.36-10.005 16.593-15.556 5.34-3.21 15.702-8.136 25.089-5.054 8.207 2.694 17.069-1.611 20.025-9.727l27.291-74.94c9.852-27.052-10.221-55.721-39.009-55.721zm-203.765-79.542c-1.096 8.768-9.086 14.987-17.861 13.892-30.48-3.81-61.465.081-92.094 11.567-8.274 3.103-17.496-1.09-20.599-9.364s1.09-17.496 9.364-20.599c35.526-13.322 71.623-17.818 107.299-13.357 8.767 1.095 14.987 9.092 13.891 17.861zm116.977 101.763c-7.346 7.346-19.255 7.346-26.601 0s-7.346-19.255 0-26.601 19.255-7.346 26.601 0 7.346 19.255 0 26.601z"/></svg>