<svg fill="currentColor" id="Layer_1" enable-background="new 0 0 512.347 512.347" viewBox="0 0 512.347 512.347" xmlns="http://www.w3.org/2000/svg"><path fill="currentColor" d="m485.45 26.97c-20.796-20.795-52.295-29.758-91.094-25.925-37.109 3.668-80.19 19.037-124.584 44.446-.507.291-.979.619-1.415.979-124.073-7.923-229.636 97.65-221.706 221.72-.371.445-.708.928-1.006 1.448-38.681 69.865-70.385 158.494-18.494 215.631 17.883 17.882 43.106 26.897 73.813 26.897 46.283.126 100.053-21.055 143.672-46.381.151.015.304.027.457.035 123.492 7.318 228.218-97.406 220.909-220.896-.008-.158-.021-.314-.036-.47 13.074-22.66 23.698-45.268 31.52-67.292 23.348-65.743 19.073-119.082-12.036-150.192zm-60.584 103.915c-18.759-25.229-43.15-46.134-71.048-60.75 34.925-14.88 61.802-17.013 73.442-5.371 10.799 10.798 9.73 34.784-2.394 66.121zm-48.768-22.361c-17.493 47.131-45.073 67.329-63.966 62.791-29.673-7.119-43.591-.406-83.181 30.047-12.783 9.832-24.769 11.422-31.286 4.152-4.974-5.55-5.68-15.68 2.597-24.301l2.139-2.226c22.722-23.635 50.792-52.834 74.634-111.753 36.709 3.969 70.961 18.407 99.063 41.29zm-120.252-42.403c-21.705 50.991-46.125 76.393-67.864 99.006l-2.148 2.236c-14.512 15.116-15.828 37.256-3.062 51.5 15.221 16.272 38.439 14.049 58.373-1.648 38.62-29.707 45.971-31.336 66.319-26.452 26.426 6.338 61.701-12.561 84.46-67.787 8.67 8.867 16.547 18.66 23.489 29.302-.139.282-.278.564-.419.847-20.385 41.036-53.887 87.011-95.46 131.253-10.325-5.88-22.007-7.094-34.836-3.602-12.535 3.413-24.31 10.623-35.696 17.596-13.385 8.196-27.227 16.667-34.545 12.818-27.251-14.344-65.005 8.61-101.516 30.803-6.824 4.148-13.372 8.128-19.747 11.813-76.042-123.12 17.322-289.308 162.652-287.685zm-183.661 290.999c14.508 26.448 34.679 49.554 58.834 67.529-31.52 12.247-55.232 13.269-66.073 2.429-11.643-11.642-9.509-38.519 5.371-73.443.611 1.168 1.234 2.33 1.868 3.485zm80.212 58.072c-18.79-12.266-34.935-27.453-47.998-44.765 6.287-3.658 12.682-7.544 18.93-11.342 30.275-18.403 64.592-39.259 81.813-30.196 17.38 9.149 36.153-2.344 54.305-13.461 19.249-11.788 33.127-19.324 45.317-15.749-.813.82-1.628 1.639-2.447 2.458-53.868 53.868-107.04 91.955-149.92 113.055zm125.435 29.715c62.252-42.068 125.188-105.004 167.256-167.256-9.925 87.599-79.657 157.332-167.256 167.256zm200.808-274.437c-40.319 120.44-187.55 267.669-307.988 307.989-28.834 10.239-54.831 14.755-77.252 13.441-100.536-6.381-78.691-121.239-42.128-190.447 2.099 9.487 4.853 18.827 8.241 27.939-32.495 65.158-33.472 122.875 28.22 125.174 24.816-.657 45.39-7.872 74.473-21.84 96.113-46.081 224.622-174.589 270.701-270.704 17.76-37.191 34.7-83.005 8.497-111.4-20.25-20.25-59.947-17.153-111.828 8.71-9.113-3.388-18.454-6.142-27.941-8.241 54.921-26.651 126.459-49.367 169.675-9.977 31.244 33.713 22.905 83.121 7.33 129.356z"/></svg>